<svg width="1335" height="1254" viewBox="0 0 1335 1254" fill="none" xmlns="http://www.w3.org/2000/svg">
<path d="M94.0574 1112.34C54.0183 1112.34 29.0183 1084.32 29.0183 1039.59V1039.39C29.0183 994.766 54.116 966.738 94.0574 966.738C133.901 966.738 158.901 994.766 158.901 1039.39V1039.59C158.901 1084.32 133.999 1112.34 94.0574 1112.34ZM94.0574 1096.13C123.061 1096.13 140.932 1073.96 140.932 1039.59V1039.39C140.932 1004.82 122.768 982.949 94.0574 982.949C65.2488 982.949 46.9871 1004.73 46.9871 1039.39V1039.59C46.9871 1074.26 65.1511 1096.13 94.0574 1096.13ZM177.795 1144.18V1008.44H194.787V1025.62H195.177C201.525 1013.81 212.853 1006.48 227.404 1006.48C253.381 1006.48 270.568 1027.19 270.568 1059.22V1059.32C270.568 1091.35 253.185 1111.95 227.697 1111.95C213.342 1111.95 201.525 1104.73 195.177 1093.01H194.787V1144.18H177.795ZM224.084 1096.91C242.052 1096.91 253.185 1082.46 253.185 1059.32V1059.22C253.185 1035.88 242.052 1021.52 224.084 1021.52C206.896 1021.52 194.689 1036.46 194.689 1059.22V1059.32C194.689 1081.97 206.994 1096.91 224.084 1096.91ZM287.411 1144.18V1008.44H304.403V1025.62H304.794C311.141 1013.81 322.469 1006.48 337.02 1006.48C362.997 1006.48 380.184 1027.19 380.184 1059.22V1059.32C380.184 1091.35 362.801 1111.95 337.313 1111.95C322.958 1111.95 311.141 1104.73 304.794 1093.01H304.403V1144.18H287.411ZM333.7 1096.91C351.669 1096.91 362.801 1082.46 362.801 1059.32V1059.22C362.801 1035.88 351.669 1021.52 333.7 1021.52C316.512 1021.52 304.305 1036.46 304.305 1059.22V1059.32C304.305 1081.97 316.61 1096.91 333.7 1096.91ZM439.117 1111.95C410.894 1111.95 392.047 1091.54 392.047 1059.22V1059.02C392.047 1026.7 410.992 1006.48 439.019 1006.48C467.047 1006.48 486.089 1026.6 486.089 1059.02V1059.22C486.089 1091.64 467.144 1111.95 439.117 1111.95ZM439.214 1096.91C457.086 1096.91 468.707 1083.05 468.707 1059.22V1059.02C468.707 1035.2 456.988 1021.52 439.019 1021.52C421.343 1021.52 409.429 1035.29 409.429 1059.02V1059.22C409.429 1083.14 421.246 1096.91 439.214 1096.91ZM502.932 1110V1008.44H519.924V1025.62H520.315C523.733 1013.91 532.522 1006.48 543.948 1006.48C546.878 1006.48 549.417 1006.97 550.784 1007.17V1023.67C549.417 1023.18 545.803 1022.7 541.702 1022.7C528.518 1022.7 519.924 1031.88 519.924 1047.3V1110H502.932ZM602.197 1111.95C583.544 1111.95 574.365 1103.55 574.365 1084.12V1022.5H559.521V1008.44H574.365V980.996H591.943V1008.44H611.279V1022.5H591.943V1084.02C591.943 1094.86 596.728 1097.89 605.81 1097.89C607.861 1097.89 609.814 1097.6 611.279 1097.5V1111.27C609.13 1111.56 605.517 1111.95 602.197 1111.95ZM663.864 1111.95C641.598 1111.95 628.708 1097.5 628.708 1074.36V1008.44H645.7V1071.33C645.7 1087.83 653.415 1096.91 669.04 1096.91C685.055 1096.91 695.504 1085.49 695.504 1068.2V1008.44H712.497V1110H695.504V1095.55H695.114C689.645 1105.02 679.293 1111.95 663.864 1111.95ZM734.32 1110V1008.44H751.312V1022.89H751.703C757.171 1013.42 767.523 1006.48 782.953 1006.48C805.218 1006.48 818.109 1020.94 818.109 1044.08V1110H801.117V1047.11C801.117 1030.61 793.402 1021.52 777.777 1021.52C761.761 1021.52 751.312 1032.95 751.312 1050.23V1110H734.32ZM849.014 991.25C843.155 991.25 838.37 986.465 838.37 980.605C838.37 974.648 843.155 969.961 849.014 969.961C854.971 969.961 859.659 974.648 859.659 980.605C859.659 986.465 854.971 991.25 849.014 991.25ZM840.518 1110V1008.44H857.51V1110H840.518ZM913.708 1110V984.902H869.275V969.082H975.72V984.902H931.286V1110H913.708ZM968.832 1110V1008.44H985.825V1025.62H986.215C989.633 1013.91 998.422 1006.48 1009.85 1006.48C1012.78 1006.48 1015.32 1006.97 1016.68 1007.17V1023.67C1015.32 1023.18 1011.7 1022.7 1007.6 1022.7C994.418 1022.7 985.825 1031.88 985.825 1047.3V1110H968.832ZM1057.94 1111.95C1037.73 1111.95 1024.15 1099.75 1024.15 1081.29V1081.09C1024.15 1063.81 1037.63 1052.97 1060.97 1051.6L1090.07 1049.94V1041.45C1090.07 1029.04 1081.96 1021.52 1067.8 1021.52C1054.72 1021.52 1046.51 1027.77 1044.56 1036.86L1044.37 1037.73H1027.96L1028.06 1036.66C1029.52 1019.96 1044.07 1006.48 1068 1006.48C1092.02 1006.48 1107.06 1019.47 1107.06 1039.79V1110H1090.07V1093.5H1089.68C1083.72 1104.63 1071.51 1111.95 1057.94 1111.95ZM1041.53 1081.29C1041.53 1091.05 1049.54 1097.21 1061.75 1097.21C1077.76 1097.21 1090.07 1086.17 1090.07 1071.43V1063.12L1062.92 1064.79C1049.35 1065.57 1041.53 1071.62 1041.53 1081.09V1081.29ZM1170.39 1111.95C1141.58 1111.95 1123.32 1091.45 1123.32 1059.12V1059.02C1123.32 1026.99 1141.97 1006.48 1170.19 1006.48C1195.49 1006.48 1210.43 1023.28 1212.58 1040.66L1212.67 1041.45H1196.07L1195.88 1040.66C1193.34 1030.51 1185.14 1021.52 1170.19 1021.52C1152.52 1021.52 1140.7 1036.17 1140.7 1059.22V1059.32C1140.7 1082.95 1152.81 1096.91 1170.39 1096.91C1184.26 1096.91 1193.14 1089.1 1195.97 1077.77L1196.17 1076.99H1212.87L1212.77 1077.68C1210.04 1097.01 1193.34 1111.95 1170.39 1111.95ZM1229.52 1110V969.082H1246.51V1053.26H1246.9L1291.43 1008.44H1312.04L1267.99 1052.29L1313.4 1110H1293.68L1255.98 1062.64L1246.51 1071.72V1110H1229.52Z" fill="black"/>
<g filter="url(#filter0_di_753_38593)">
<circle cx="668" cy="440" r="430" fill="url(#paint0_linear_753_38593)"/>
</g>
<g filter="url(#filter1_d_753_38593)">
<g filter="url(#filter2_ddi_753_38593)">
<circle cx="668" cy="440" r="251.767" fill="url(#paint1_linear_753_38593)"/>
<circle cx="668" cy="440" r="251.767" fill="url(#paint2_linear_753_38593)"/>
</g>
<g style="mix-blend-mode:lighten" filter="url(#filter3_i_753_38593)">
<circle cx="668" cy="440" r="251.767" transform="rotate(-15 668 440)" fill="url(#paint3_linear_753_38593)"/>
</g>
<g style="mix-blend-mode:darken" filter="url(#filter4_i_753_38593)">
<circle cx="668" cy="440" r="251.767" transform="rotate(-15 668 440)" fill="url(#paint4_linear_753_38593)"/>
</g>
</g>
<defs>
<filter id="filter0_di_753_38593" x="228" y="0" width="880" height="880" filterUnits="userSpaceOnUse" color-interpolation-filters="sRGB">
<feFlood flood-opacity="0" result="BackgroundImageFix"/>
<feColorMatrix in="SourceAlpha" type="matrix" values="0 0 0 0 0 0 0 0 0 0 0 0 0 0 0 0 0 0 127 0" result="hardAlpha"/>
<feOffset/>
<feGaussianBlur stdDeviation="5"/>
<feColorMatrix type="matrix" values="0 0 0 0 0 0 0 0 0 0 0 0 0 0 0 0 0 0 0.1 0"/>
<feBlend mode="normal" in2="BackgroundImageFix" result="effect1_dropShadow_753_38593"/>
<feBlend mode="normal" in="SourceGraphic" in2="effect1_dropShadow_753_38593" result="shape"/>
<feColorMatrix in="SourceAlpha" type="matrix" values="0 0 0 0 0 0 0 0 0 0 0 0 0 0 0 0 0 0 127 0" result="hardAlpha"/>
<feOffset/>
<feGaussianBlur stdDeviation="5"/>
<feComposite in2="hardAlpha" operator="arithmetic" k2="-1" k3="1"/>
<feColorMatrix type="matrix" values="0 0 0 0 1 0 0 0 0 1 0 0 0 0 1 0 0 0 0.5 0"/>
<feBlend mode="normal" in2="shape" result="effect2_innerShadow_753_38593"/>
</filter>
<filter id="filter1_d_753_38593" x="392.171" y="168.171" width="551.658" height="551.658" filterUnits="userSpaceOnUse" color-interpolation-filters="sRGB">
<feFlood flood-opacity="0" result="BackgroundImageFix"/>
<feColorMatrix in="SourceAlpha" type="matrix" values="0 0 0 0 0 0 0 0 0 0 0 0 0 0 0 0 0 0 127 0" result="hardAlpha"/>
<feOffset dy="4"/>
<feGaussianBlur stdDeviation="12"/>
<feColorMatrix type="matrix" values="0 0 0 0 0.144299 0 0 0 0 0.0362847 0 0 0 0 0.229167 0 0 0 0.3 0"/>
<feBlend mode="normal" in2="BackgroundImageFix" result="effect1_dropShadow_753_38593"/>
<feBlend mode="normal" in="SourceGraphic" in2="effect1_dropShadow_753_38593" result="shape"/>
</filter>
<filter id="filter2_ddi_753_38593" x="396.233" y="162.233" width="543.533" height="553.533" filterUnits="userSpaceOnUse" color-interpolation-filters="sRGB">
<feFlood flood-opacity="0" result="BackgroundImageFix"/>
<feColorMatrix in="SourceAlpha" type="matrix" values="0 0 0 0 0 0 0 0 0 0 0 0 0 0 0 0 0 0 127 0" result="hardAlpha"/>
<feOffset dy="-6"/>
<feGaussianBlur stdDeviation="10"/>
<feColorMatrix type="matrix" values="0 0 0 0 1 0 0 0 0 1 0 0 0 0 1 0 0 0 0.3 0"/>
<feBlend mode="normal" in2="BackgroundImageFix" result="effect1_dropShadow_753_38593"/>
<feColorMatrix in="SourceAlpha" type="matrix" values="0 0 0 0 0 0 0 0 0 0 0 0 0 0 0 0 0 0 127 0" result="hardAlpha"/>
<feOffset dy="4"/>
<feGaussianBlur stdDeviation="10"/>
<feColorMatrix type="matrix" values="0 0 0 0 0 0 0 0 0 0 0 0 0 0 0 0 0 0 0.3 0"/>
<feBlend mode="normal" in2="effect1_dropShadow_753_38593" result="effect2_dropShadow_753_38593"/>
<feBlend mode="normal" in="SourceGraphic" in2="effect2_dropShadow_753_38593" result="shape"/>
<feColorMatrix in="SourceAlpha" type="matrix" values="0 0 0 0 0 0 0 0 0 0 0 0 0 0 0 0 0 0 127 0" result="hardAlpha"/>
<feOffset/>
<feGaussianBlur stdDeviation="10"/>
<feComposite in2="hardAlpha" operator="arithmetic" k2="-1" k3="1"/>
<feColorMatrix type="matrix" values="0 0 0 0 0.0703084 0 0 0 0 0.00270833 0 0 0 0 0.213958 0 0 0 0.5 0"/>
<feBlend mode="normal" in2="shape" result="effect3_innerShadow_753_38593"/>
</filter>
<filter id="filter3_i_753_38593" x="416.171" y="188.171" width="503.658" height="511.658" filterUnits="userSpaceOnUse" color-interpolation-filters="sRGB">
<feFlood flood-opacity="0" result="BackgroundImageFix"/>
<feBlend mode="normal" in="SourceGraphic" in2="BackgroundImageFix" result="shape"/>
<feColorMatrix in="SourceAlpha" type="matrix" values="0 0 0 0 0 0 0 0 0 0 0 0 0 0 0 0 0 0 127 0" result="hardAlpha"/>
<feOffset dy="10"/>
<feGaussianBlur stdDeviation="4"/>
<feComposite in2="hardAlpha" operator="arithmetic" k2="-1" k3="1"/>
<feColorMatrix type="matrix" values="0 0 0 0 1 0 0 0 0 1 0 0 0 0 1 0 0 0 1 0"/>
<feBlend mode="normal" in2="shape" result="effect1_innerShadow_753_38593"/>
</filter>
<filter id="filter4_i_753_38593" x="416.171" y="178.171" width="503.658" height="513.658" filterUnits="userSpaceOnUse" color-interpolation-filters="sRGB">
<feFlood flood-opacity="0" result="BackgroundImageFix"/>
<feBlend mode="normal" in="SourceGraphic" in2="BackgroundImageFix" result="shape"/>
<feColorMatrix in="SourceAlpha" type="matrix" values="0 0 0 0 0 0 0 0 0 0 0 0 0 0 0 0 0 0 127 0" result="hardAlpha"/>
<feOffset dy="-10"/>
<feGaussianBlur stdDeviation="5"/>
<feComposite in2="hardAlpha" operator="arithmetic" k2="-1" k3="1"/>
<feColorMatrix type="matrix" values="0 0 0 0 0 0 0 0 0 0 0 0 0 0 0 0 0 0 0.15 0"/>
<feBlend mode="normal" in2="shape" result="effect1_innerShadow_753_38593"/>
</filter>
<linearGradient id="paint0_linear_753_38593" x1="668" y1="9.02605" x2="668" y2="870" gradientUnits="userSpaceOnUse">
<stop stop-color="#F5F5F6"/>
<stop offset="1" stop-color="#EEEEF1"/>
</linearGradient>
<linearGradient id="paint1_linear_753_38593" x1="546.256" y1="227.191" x2="826.754" y2="629.921" gradientUnits="userSpaceOnUse">
<stop stop-color="#9444FB"/>
<stop offset="1" stop-color="#4D08A4"/>
</linearGradient>
<linearGradient id="paint2_linear_753_38593" x1="805.814" y1="656.217" x2="696.732" y2="488.698" gradientUnits="userSpaceOnUse">
<stop stop-opacity="0.19"/>
<stop offset="1" stop-opacity="0"/>
</linearGradient>
<linearGradient id="paint3_linear_753_38593" x1="546.256" y1="227.191" x2="826.754" y2="629.921" gradientUnits="userSpaceOnUse">
<stop stop-color="#40E6DA"/>
<stop offset="1" stop-color="#23D8CD" stop-opacity="0"/>
</linearGradient>
<linearGradient id="paint4_linear_753_38593" x1="546.256" y1="227.191" x2="826.754" y2="629.921" gradientUnits="userSpaceOnUse">
<stop stop-color="#6C38F6" stop-opacity="0"/>
<stop offset="1" stop-color="#6C38F6"/>
</linearGradient>
</defs>
</svg>
